<?xml version="1.0" encoding="UTF-8" standalone="no"?>
<!-- Generator: Adobe Illustrator 19.2.1, SVG Export Plug-In . SVG Version: 6.00 Build 0)  -->
<!-- Copied from Bühler Components Library -->
<svg
   xmlns:dc="http://purl.org/dc/elements/1.1/"
   xmlns:cc="http://creativecommons.org/ns#"
   xmlns:rdf="http://www.w3.org/1999/02/22-rdf-syntax-ns#"
   xmlns:svg="http://www.w3.org/2000/svg"
   xmlns="http://www.w3.org/2000/svg"
   xmlns:sodipodi="http://sodipodi.sourceforge.net/DTD/sodipodi-0.dtd"
   xmlns:inkscape="http://www.inkscape.org/namespaces/inkscape"
   version="1.1"
   id="Ebene_1"
   x="0px"
   y="0px"
   viewBox="0 0 455.79999 85.800005"
   xml:space="preserve"
   sodipodi:docname="logo.svg"
   width="455.79999"
   height="85.800003"
   inkscape:version="0.92.3 (2405546, 2018-03-11)"><metadata
   id="metadata27"><rdf:RDF><cc:Work
       rdf:about=""><dc:format>image/svg+xml</dc:format><dc:type
         rdf:resource="http://purl.org/dc/dcmitype/StillImage" /></cc:Work></rdf:RDF></metadata><defs
   id="defs25" /><sodipodi:namedview
   pagecolor="#ffffff"
   bordercolor="#666666"
   borderopacity="1"
   objecttolerance="10"
   gridtolerance="10"
   guidetolerance="10"
   inkscape:pageopacity="0"
   inkscape:pageshadow="2"
   inkscape:window-width="1920"
   inkscape:window-height="1001"
   id="namedview23"
   showgrid="false"
   inkscape:zoom="0.54023904"
   inkscape:cx="-81.172419"
   inkscape:cy="42.900003"
   inkscape:window-x="-9"
   inkscape:window-y="-9"
   inkscape:window-maximized="1"
   inkscape:current-layer="Ebene_1" />
<style
   type="text/css"
   id="style2">
    .st0{fill:#009B91;}
</style>
<g
   id="g20"
   transform="translate(-85.8,-85.8)">
    <polygon
   class="st0"
   points="276.4,109.2 273.6,129.5 283.1,129.5 285.9,109.2 "
   id="polygon4"
   style="fill:#009b91" />
    <path
   class="st0"
   d="M 172.4,99.1 539.8,99 541.6,85.8 H 133.9 c -27.4,0 -48.1,19 -48.1,42.4 0,23.4 20.7,42.4 48.1,42.4 h 26.3 l 1.4,-10.2 c -15,-2.1 -26.2,-18 -23.9,-34.2 2.2,-15.4 16.3,-27.1 34.7,-27.1 z"
   id="path6"
   inkscape:connector-curvature="0"
   style="fill:#009b91" />
    <path
   class="st0"
   d="m 520.4,109.2 h -27.6 l -8.6,61.4 h 15.9 l 2.8,-20.3 h 5.6 l 10,20.3 h 17.8 l -11.3,-22 c 7.9,-2.8 13.5,-9.2 14.8,-18.5 1.9,-13.4 -6.2,-20.9 -19.4,-20.9 z m 3.7,20.9 c -0.7,4.5 -3.7,7.4 -9.4,7.4 h -10 l 2.1,-14.8 h 10 c 5.7,0 7.9,2.9 7.3,7.4 z"
   id="path8"
   inkscape:connector-curvature="0"
   style="fill:#009b91" />
    <polygon
   class="st0"
   points="378.8,170.6 420,170.6 421.9,156.7 396.8,156.7 403.5,109.2 387.4,109.2 "
   id="polygon10"
   style="fill:#009b91" />
    <polygon
   class="st0"
   points="473.1,156.7 445,156.7 446.5,146.1 472.2,146.1 474.1,132.6 448.4,132.6 449.8,123 477.9,123 479.8,109.2 435.9,109.2 427.3,170.6 471.2,170.6 "
   id="polygon12"
   style="fill:#009b91" />
    <path
   class="st0"
   d="m 221.1,109.2 h -26.3 l -8.6,61.4 h 28.2 c 12.8,0 21.2,-6.1 22.8,-17.2 1,-6.9 -2.4,-12.6 -8,-14.5 4.8,-1.6 9.1,-6.4 10.1,-13 1.5,-11 -5.4,-16.7 -18.2,-16.7 z m 0.9,42.3 c -0.5,3.5 -3.4,5.9 -7.9,5.9 h -10.8 l 1.7,-11.9 h 10.8 c 4.5,0 6.7,2.3 6.2,6 z m 1.9,-23.6 c -0.5,3.8 -3.3,5.6 -8,5.6 h -9.2 l 1.6,-11.1 h 9.2 c 4.7,0 6.9,1.7 6.4,5.5 z"
   id="path14"
   inkscape:connector-curvature="0"
   style="fill:#009b91" />
    <polygon
   class="st0"
   points="337,109.2 320.9,109.2 312.3,170.6 328.4,170.6 331.8,146.3 353.1,146.3 349.7,170.6 365.8,170.6 374.4,109.2 358.3,109.2 355,132.5 333.7,132.5 "
   id="polygon16"
   style="fill:#009b91" />
    <path
   class="st0"
   d="m 287,144.1 c -1.2,8.7 -5.9,13.2 -12.5,13.2 -6.7,0 -10.2,-4.5 -9,-13.2 l 4.9,-34.9 h -16 l -5.1,36.3 c -2.4,16.9 6.9,26.1 23.1,26.1 16.2,0 28,-9.2 30.4,-26 l 5.1,-36.4 h -16 z"
   id="path18"
   inkscape:connector-curvature="0"
   style="fill:#009b91" />
</g>
</svg>